<svg width="659" height="257" viewBox="0 0 659 257" fill="none" xmlns="http://www.w3.org/2000/svg">
<path d="M307.469 124.858V200.55H283.285V13.6328H347.398C363.647 13.6328 377.503 19.0127 388.839 29.7723C400.427 40.5319 406.221 53.6687 406.221 69.1826C406.221 85.0719 400.427 98.2086 388.839 108.843C377.628 119.478 363.773 124.732 347.398 124.732H307.469V124.858ZM307.469 36.6535V101.837H347.902C357.475 101.837 365.536 98.584 371.834 92.2032C378.258 85.8225 381.533 78.0656 381.533 69.3077C381.533 60.675 378.258 53.0432 371.834 46.6624C365.536 40.0315 357.601 36.7786 347.902 36.7786H307.469V36.6535Z" fill="#5F6368"/>
<path d="M469.459 68.4346C487.345 68.4346 501.453 73.1888 511.781 82.6973C522.11 92.2059 527.274 105.218 527.274 121.732V200.553H504.224V182.787H503.216C493.265 197.425 479.914 204.682 463.287 204.682C449.054 204.682 437.214 200.553 427.641 192.17C418.068 183.788 413.281 173.404 413.281 160.892C413.281 147.631 418.32 137.121 428.396 129.364C438.473 121.482 451.951 117.604 468.703 117.604C483.063 117.604 494.903 120.231 504.098 125.486V119.981C504.098 111.598 500.823 104.592 494.147 98.7117C487.471 92.8314 479.662 89.9538 470.719 89.9538C457.241 89.9538 446.535 95.5839 438.725 106.969L417.438 93.7072C429.152 76.8171 446.535 68.4346 469.459 68.4346ZM438.221 161.268C438.221 167.523 440.866 172.778 446.283 176.907C451.573 181.035 457.871 183.162 465.051 183.162C475.253 183.162 484.322 179.409 492.258 171.902C500.193 164.396 504.224 155.638 504.224 145.504C496.666 139.623 486.212 136.621 472.734 136.621C462.909 136.621 454.722 138.998 448.172 143.627C441.496 148.506 438.221 154.387 438.221 161.268Z" fill="#5F6368"/>
<path d="M658.781 72.5605L578.167 256.726H553.227L583.206 192.293L530.051 72.5605H556.376L594.668 164.393H595.172L632.456 72.5605H658.781Z" fill="#5F6368"/>
<path d="M211.278 109.593C211.278 101.761 210.572 94.267 209.263 87.0605H107.891V128.348L166.273 128.36C163.905 142.097 156.284 153.808 144.608 161.615V188.401H179.36C199.652 169.747 211.278 142.172 211.278 109.593Z" fill="#4285F4"/>
<path d="M144.609 161.623C134.936 168.104 122.478 171.895 107.905 171.895C79.7531 171.895 55.8713 153.053 47.3187 127.655H11.4707V155.28C29.2309 190.286 65.7339 214.308 107.905 214.308C137.052 214.308 161.538 204.787 179.362 188.397L144.609 161.623Z" fill="#34A853"/>
<path d="M43.9471 107.164C43.9471 100.032 45.1437 93.1388 47.3228 86.658V59.0332H11.4749C4.13144 73.5087 0 89.8483 0 107.164C0 124.479 4.14404 140.819 11.4749 155.294L47.3228 127.67C45.1437 121.189 43.9471 114.295 43.9471 107.164Z" fill="#FABB05"/>
<path d="M107.905 42.413C123.814 42.413 138.06 47.8554 149.308 58.4899L180.105 27.925C161.4 10.622 137.014 0 107.905 0C65.7465 0 29.2309 24.0215 11.4707 59.0279L47.3187 86.6527C55.8713 61.2549 79.7531 42.413 107.905 42.413Z" fill="#E94235"/>
</svg>
