<svg width="632" height="299" viewBox="0 0 632 299" fill="none" xmlns="http://www.w3.org/2000/svg">
<path d="M147.396 92.7231C163.655 92.7231 176.108 99.0101 184.758 111.584L183.797 112.185C183.156 112.665 182.475 113.186 181.755 113.746C181.034 114.227 180.113 114.948 178.992 115.909C177.95 116.79 176.909 117.831 175.868 119.032C174.827 120.154 173.706 121.435 172.504 122.877C171.383 124.238 170.342 125.84 169.381 127.682C168.5 129.444 167.659 131.326 166.858 133.328C166.137 135.25 165.537 137.453 165.056 139.936C164.656 142.418 164.455 144.941 164.455 147.504C164.455 152.79 165.336 157.715 167.098 162.28C168.86 166.765 170.863 170.369 173.105 173.092C175.347 175.815 177.83 178.218 180.553 180.3C183.276 182.383 185.319 183.784 186.68 184.505C188.122 185.226 189.123 185.666 189.683 185.826C189.523 186.467 189.043 187.869 188.242 190.031C187.521 192.194 186.079 195.517 183.917 200.002C181.835 204.487 179.472 208.732 176.829 212.736C174.266 216.42 172.144 219.344 170.462 221.506C168.78 223.588 166.658 225.911 164.095 228.474C161.532 231.037 158.849 232.919 156.046 234.12C153.323 235.321 150.44 235.922 147.396 235.922C143.232 235.922 138.306 234.681 132.62 232.198C126.934 229.715 121.568 228.474 116.522 228.474C111.396 228.474 105.79 229.755 99.7035 232.318C93.6167 234.881 88.7713 236.162 85.1673 236.162C79.8815 236.162 75.0761 234.2 70.7513 230.276C66.5066 226.352 61.5411 220.345 55.8548 212.256C50.0884 204.007 45.3231 194.236 41.5589 182.943C37.8748 171.571 36.0328 160.398 36.0328 149.426C36.0328 140.616 37.3943 132.567 40.1173 125.279C42.8403 117.991 46.4443 112.065 50.9293 107.5C55.4143 102.934 60.4599 99.4105 66.0661 96.9278C71.6724 94.445 77.4788 93.2036 83.4855 93.2036C87.9705 93.2036 93.6167 94.5651 100.424 97.2882C107.312 100.011 111.877 101.373 114.119 101.373C116.042 101.373 120.727 99.9311 128.175 97.0479C135.623 94.1647 142.03 92.7231 147.396 92.7231ZM140.789 77.2259C137.586 81.0702 133.541 84.2737 128.656 86.8366C123.85 89.3994 119.325 90.6808 115.081 90.6808C114.2 90.6808 113.359 90.6007 112.558 90.4406C112.317 89.4795 112.197 88.3182 112.197 86.9567C112.197 82.3916 113.198 77.8266 115.201 73.2615C117.203 68.6964 119.646 64.732 122.529 61.3683C125.973 57.3638 130.257 54.0401 135.383 51.3972C140.589 48.6742 145.554 47.2326 150.28 47.0724C150.52 48.1136 150.64 49.3549 150.64 50.7965C150.64 60.3271 147.356 69.1369 140.789 77.2259ZM236.906 60.6475H306.824C324.123 60.6475 338.138 66.0535 348.87 76.8655C359.682 87.6775 365.088 101.813 365.088 119.273C365.088 136.412 359.522 150.347 348.39 161.079C337.337 171.811 323.042 177.177 305.502 177.177H267.9V234H236.906V60.6475ZM267.9 86.5963V151.468H298.534C309.667 151.468 318.276 148.665 324.363 143.059C330.53 137.453 333.613 129.524 333.613 119.273C333.613 108.701 330.57 100.612 324.483 95.0056C318.476 89.3994 309.867 86.5963 298.654 86.5963H267.9ZM423.243 212.736C432.213 212.736 439.701 210.174 445.708 205.048C451.715 199.842 454.718 193.435 454.718 185.826V175.375L425.045 177.297C408.707 178.338 400.538 184.265 400.538 195.077C400.538 200.523 402.62 204.848 406.785 208.051C411.029 211.175 416.515 212.736 423.243 212.736ZM414.473 236.162C401.659 236.162 391.207 232.558 383.118 225.35C375.029 218.142 370.985 208.612 370.985 196.759C370.985 184.905 375.27 175.615 383.839 168.888C392.489 162.16 404.822 158.316 420.84 157.355L454.718 155.313V144.26C454.718 137.773 452.595 132.808 448.351 129.364C444.106 125.92 437.979 124.198 429.97 124.198C423.083 124.198 417.396 125.399 412.911 127.802C408.426 130.125 405.503 133.488 404.142 137.893H376.03C377.232 126.28 382.838 117.07 392.849 110.263C402.94 103.375 415.795 99.9311 431.412 99.9311C448.231 99.9311 461.205 103.815 470.335 111.584C479.545 119.353 484.151 130.245 484.151 144.26V234H455.439V215.98H453.396C449.712 222.307 444.426 227.273 437.539 230.877C430.731 234.4 423.043 236.162 414.473 236.162ZM517.317 281.693C511.151 281.693 507.226 281.533 505.544 281.212V256.825C507.066 257.146 509.789 257.306 513.713 257.306C520.04 257.306 525.046 255.984 528.73 253.341C532.494 250.699 535.337 246.374 537.26 240.367L538.821 234.601L491.849 102.574H524.525L555.28 205.168H557.322L587.956 102.574H619.431L571.978 238.205C566.452 254.463 559.644 265.755 551.555 272.082C543.547 278.489 532.134 281.693 517.317 281.693Z" fill="black"/>
</svg>
